<?xml version="1.0" standalone="no"?>
<!DOCTYPE svg PUBLIC "-//W3C//DTD SVG 20010904//EN"
 "http://www.w3.org/TR/2001/REC-SVG-20010904/DTD/svg10.dtd">
<svg version="1.0" xmlns="http://www.w3.org/2000/svg"
 width="243.000000pt" height="243.000000pt" viewBox="0 0 243.000000 243.000000"
 preserveAspectRatio="xMidYMid meet">

<g transform="translate(0.000000,243.000000) scale(0.100000,-0.100000)"
fill="#FFFFFF" stroke="none">
<path d="M1049 2350 c-255 -32 -482 -143 -664 -323 -230 -229 -346 -524 -332
-847 8 -173 45 -317 120 -465 284 -567 998 -787 1555 -479 298 164 510 459
568 788 8 44 14 138 14 207 0 200 -34 341 -126 519 -151 292 -450 517 -777
584 -96 20 -268 28 -358 16z m286 -75 c231 -34 412 -123 578 -284 154 -148
239 -293 299 -506 29 -104 36 -332 13 -450 -43 -232 -151 -426 -331 -593 -135
-126 -283 -205 -474 -253 -117 -29 -329 -32 -450 -5 -411 88 -732 408 -826
822 -24 108 -25 320 -1 431 107 491 532 840 1037 852 30 0 100 -6 155 -14z"/>
<path d="M965 2130 c-179 -47 -312 -125 -435 -256 -212 -226 -297 -506 -244
-809 8 -49 24 -107 34 -130 10 -22 21 -55 25 -72 3 -18 11 -35 16 -38 5 -4 6
2 2 12 -6 16 -5 16 10 5 13 -11 11 -1 -9 47 -31 79 -58 201 -45 214 13 13 31
0 31 -23 0 -34 51 -181 61 -175 5 4 9 -3 9 -14 0 -16 14 -59 26 -79 6 -10 54
25 54 40 0 10 5 18 11 18 5 0 7 5 3 12 -5 7 -3 8 7 3 19 -12 45 -48 41 -58 -1
-5 2 -6 8 -2 6 4 8 16 4 28 -6 19 -5 20 9 8 11 -9 8 3 -9 34 -13 26 -36 90
-49 142 -63 242 1 489 173 670 50 52 53 58 36 70 -10 7 -23 13 -30 13 -17 0
-96 -97 -131 -161 -27 -46 -53 -65 -53 -36 0 23 60 110 113 164 47 49 50 54
39 78 -7 14 -12 35 -12 46 0 19 -1 19 -29 -2 -44 -32 -62 -18 -21 17 19 16 51
46 71 66 21 21 50 40 66 44 15 4 42 19 58 34 41 38 68 50 107 49 41 -2 186 36
167 44 -9 3 -7 6 7 6 11 1 24 -3 30 -8 5 -6 14 -4 22 5 11 12 4 14 -45 13 -32
0 -89 -8 -128 -19z m-489 -1264 c0 -28 -2 -31 -14 -20 -7 8 -18 14 -23 14 -5
0 -9 4 -9 10 0 5 6 7 14 4 7 -3 16 2 19 10 10 24 13 19 13 -18z m86 2 c-7 -7
-12 -8 -12 -2 0 14 12 26 19 19 2 -3 -1 -11 -7 -17z"/>
<path d="M1079 2085 c-3 -2 -25 -7 -49 -10 -24 -3 -46 -8 -48 -10 -11 -11 84
-25 163 -24 70 1 81 3 48 8 -48 8 -68 21 -33 21 13 0 21 2 19 4 -7 6 -95 17
-100 11z"/>
<path d="M836 2031 c-40 -44 12 -90 132 -117 62 -14 105 -16 237 -11 88 4 172
9 187 12 37 7 44 -11 13 -31 -23 -15 -50 -16 -245 -11 l-219 5 -73 37 c-40 20
-77 41 -82 46 -20 18 -65 10 -81 -15 -23 -34 -8 -56 64 -101 101 -61 157 -75
298 -75 67 0 123 -2 123 -5 0 -3 -35 -51 -77 -106 -43 -56 -87 -114 -99 -130
-11 -16 -48 -59 -82 -96 -88 -98 -98 -113 -116 -166 -15 -45 -15 -51 0 -83 22
-46 50 -64 101 -64 49 0 100 21 162 67 121 90 313 83 386 -13 123 -161 63
-389 -124 -482 -53 -26 -63 -27 -191 -26 -115 1 -147 5 -217 26 -68 21 -85 23
-94 12 -25 -30 -5 -49 75 -71 360 -103 619 13 677 303 12 61 21 75 34 54 9
-15 -33 -179 -55 -214 -47 -76 -166 -161 -269 -193 -76 -23 -232 -23 -336 1
-94 21 -226 80 -275 123 -68 59 -104 64 -116 16 -8 -30 26 -69 102 -118 55
-36 220 -105 250 -105 15 0 16 -2 5 -9 -8 -5 -11 -16 -8 -24 15 -38 309 -44
424 -9 192 59 357 233 407 428 68 265 -104 514 -391 565 -86 16 -92 -5 57 188
92 118 123 179 86 165 -8 -3 -72 -80 -142 -170 -110 -141 -144 -179 -144 -160
0 4 145 194 235 310 66 84 75 101 75 137 0 29 -7 43 -31 63 -35 30 -68 32
-244 16 -128 -13 -257 -1 -336 30 -61 24 -62 24 -83 1z m422 -348 c-29 -37
-78 -100 -108 -140 -30 -40 -56 -70 -58 -68 -2 2 45 69 104 149 60 80 110 141
112 136 2 -5 -21 -40 -50 -77z m360 -993 c-22 -30 -35 -41 -22 -17 9 16 36 47
41 47 2 0 -6 -13 -19 -30z m-78 -81 c-90 -80 -226 -140 -310 -138 -30 1 -27 3
15 9 94 15 195 63 286 135 59 47 65 44 9 -6z"/>
<path d="M1951 884 c0 -11 3 -14 6 -6 3 7 2 16 -1 19 -3 4 -6 -2 -5 -13z"/>
<path d="M375 800 c3 -5 8 -10 11 -10 2 0 4 5 4 10 0 6 -5 10 -11 10 -5 0 -7
-4 -4 -10z"/>
<path d="M565 780 c-3 -6 1 -7 9 -4 18 7 21 14 7 14 -6 0 -13 -4 -16 -10z"/>
</g>
</svg>
